<?xml version="1.0" encoding="UTF-8"?>
<svg version="1.1" xmlns="http://www.w3.org/2000/svg" width="1024" height="1024">
<path d="M0 0 C1.25816841 -0.00583219 2.51633682 -0.01166439 3.81263155 -0.01767331 C5.20111543 -0.01404046 6.58959882 -0.0102161 7.9780817 -0.00622082 C9.45907648 -0.00924216 10.94006969 -0.01313155 12.42106014 -0.01781338 C16.48718166 -0.02810429 20.5532151 -0.02590879 24.61934388 -0.02163279 C29.00592606 -0.01916757 33.39248692 -0.02817717 37.77906132 -0.03567028 C46.37125375 -0.04842474 54.96341494 -0.05021006 63.55561524 -0.04787002 C70.53863518 -0.04608762 77.52164562 -0.04783481 84.50466442 -0.05209446 C85.99494545 -0.05298724 85.99494545 -0.05298724 87.51533316 -0.05389806 C89.53360684 -0.0551098 91.55188052 -0.05632394 93.5701542 -0.05754044 C112.50066621 -0.06841874 131.43116041 -0.06625204 150.36167342 -0.06015559 C167.6836431 -0.05498553 185.00555656 -0.06624373 202.32751512 -0.08525381 C220.11074935 -0.10462064 237.89395696 -0.11289028 255.67720181 -0.10913056 C265.66234504 -0.10721684 275.6474404 -0.10972273 285.63257504 -0.1238451 C294.13246037 -0.1357451 302.63226838 -0.13717927 311.13215476 -0.12505493 C315.46920961 -0.11915669 319.80612293 -0.1180929 324.14316845 -0.13005733 C328.11377696 -0.14088368 332.0841252 -0.13785169 336.05472136 -0.12379565 C337.49072691 -0.12113975 338.92675264 -0.12354323 340.36273842 -0.13153151 C353.93961019 -0.20181346 353.93961019 -0.20181346 359.67463017 3.25447559 C362.73882953 7.0170734 364.50132025 10.89380968 366.16632938 15.42512989 C366.61642368 16.63801685 367.06651798 17.85090382 367.5302515 19.10054493 C368.0133991 20.426549 368.49641714 21.75260028 368.97931767 23.07869434 C369.49524336 24.47735192 370.01189325 25.87574255 370.52921391 27.27388477 C371.63365412 30.26320882 372.73326531 33.25424672 373.82904911 36.24675465 C375.56894646 40.99805874 377.31956889 45.74536492 379.0720911 50.49202442 C380.86832618 55.35852865 382.66392066 60.22526311 384.45575809 65.09338856 C389.46286531 78.69659838 394.51487605 92.28256156 399.58728886 105.86156178 C401.38318901 110.66965803 403.17698811 115.47853713 404.9708643 120.2873888 C406.31005247 123.87724787 407.64954056 127.46699491 408.98908329 131.05672169 C413.09320165 142.05572149 417.19425432 153.05586449 421.29560184 164.05589771 C423.58849176 170.20546824 425.8815703 176.35496844 428.17463017 182.50447559 C429.09129774 184.96280859 430.00796441 187.42114192 430.92463017 189.87947559 C431.37838017 191.09635059 431.83213017 192.31322559 432.29963017 193.56697559 C458.42463017 263.6294756 458.42463017 263.6294756 459.79929447 267.31621265 C460.71696026 269.77713382 461.63474611 272.23801021 462.55265141 274.69884205 C464.83001293 280.80472214 467.10535403 286.91133935 469.37629032 293.01961231 C473.66933519 304.56021264 477.98324591 316.09169154 482.3642664 327.59914112 C484.18392895 332.37925595 485.99396349 337.16299959 487.80186939 341.94757175 C489.27582604 345.84563283 490.76248394 349.7385217 492.25901699 353.62796688 C493.39635316 356.59535506 494.51436514 359.57002407 495.63556767 362.54353809 C496.04688938 363.60017658 496.4582111 364.65681507 496.88199711 365.74547291 C499.16973425 371.87656862 500.26977006 376.70311785 499.67463017 383.25447559 C497.59365509 387.3421052 495.91659711 389.56846548 491.67463017 391.25447559 C489.45941234 391.50287259 489.45941234 391.50287259 486.99698353 391.50057125 C486.05546932 391.50455335 485.11395511 391.50853544 484.14391017 391.51263821 C483.11278739 391.50681253 482.08166461 391.50098685 481.01929569 391.49498463 C479.37258109 391.4975479 479.37258109 391.4975479 477.69259953 391.50016296 C474.00132271 391.50346627 470.31022628 391.49244017 466.6189661 391.48152637 C463.9780114 391.48096244 461.33706787 391.48119033 458.69611454 391.48241138 C453.00379145 391.48346043 447.31151418 391.47718181 441.61920261 391.46593571 C433.3890679 391.44968629 425.15895535 391.44447327 416.92880633 391.44195972 C403.57616474 391.43758174 390.22354756 391.42426985 376.87091923 391.4053545 C363.8995663 391.38699837 350.92822002 391.37284056 337.95685673 391.36433887 C336.75766085 391.3635507 336.75766085 391.3635507 335.53423879 391.36274661 C331.52359027 391.36013655 327.51294171 391.35760913 323.50229311 391.3551228 C290.22638768 391.3343871 256.95051219 391.29915876 223.67463017 391.25447559 C224.06326448 397.11664298 224.45757564 402.97839313 224.85680485 408.83984852 C224.99142521 410.82751994 225.12458237 412.81529109 225.25615788 414.80316639 C227.91150412 454.86415014 233.79537984 494.87245939 263.67463017 524.25447559 C266.26883316 526.51894069 268.92221491 528.67713488 271.61994267 530.81697559 C286.02466649 542.31128207 298.70462676 553.88749653 307.67463017 570.25447559 C308.2817786 571.36049122 308.88892704 572.46650684 309.51447392 573.60603809 C321.73443743 597.72509081 324.94210659 626.79447096 324.73713017 653.50447559 C324.73261845 654.64271778 324.72810673 655.78095997 324.72345829 656.95369434 C324.7118323 659.72067968 324.69549447 662.48754718 324.67463017 665.25447559 C325.60662235 665.20806934 326.53861454 665.16166309 327.49884892 665.11385059 C343.34637075 664.66518466 356.10243877 669.02743804 367.92463017 679.94197559 C390.40504312 703.80721892 382.67463017 739.5606447 382.67463017 769.25447559 C243.74463017 769.25447559 104.81463017 769.25447559 -38.32536983 769.25447559 C-38.32536983 695.76902752 -38.32536983 695.76902752 -22.74333858 679.50838184 C-12.14617411 669.63024953 -0.86960442 665.03553171 13.48713017 665.19197559 C14.66952274 665.19874317 14.66952274 665.19874317 15.87580204 665.20564747 C17.80877777 665.21736247 19.74171409 665.23529561 21.67463017 665.25447559 C21.65891972 664.37432789 21.65891972 664.37432789 21.64289188 663.47639942 C21.0623246 625.62561696 24.50573347 582.90592508 50.67463017 553.25447559 C51.37330204 552.42431934 52.07197392 551.59416309 52.79181767 550.73885059 C57.41748353 545.37241973 62.35975635 540.87157888 67.90900517 536.47713184 C71.5154655 533.57871952 74.92176598 530.48961914 78.33478642 527.36775684 C80.4480146 525.45914841 82.61153373 523.63825665 84.79963017 521.81697559 C115.05020246 495.21105056 118.82386135 449.25929099 121.29181767 411.84822559 C121.42739925 409.84266434 121.56338279 407.83713021 121.69977665 405.83162403 C122.02935472 400.97287437 122.3535189 396.11379186 122.67463017 391.25447559 C122.10982862 391.25599447 121.54502707 391.25751336 120.96311033 391.25907826 C87.4941524 391.34857548 54.02522445 391.41721417 20.5561737 391.45873691 C16.53820456 391.46373978 12.52023566 391.46891707 8.50226688 391.47420216 C7.70235599 391.4752514 6.90244509 391.47630064 6.07829447 391.47738168 C-6.87660883 391.4947906 -19.83144119 391.52633097 -32.7863024 391.56308678 C-46.0775328 391.60048265 -59.36872603 391.62270858 -72.66000688 391.63082957 C-80.86257506 391.63632017 -89.06494272 391.65366648 -97.26744919 391.68614146 C-102.89094365 391.70727266 -108.51433433 391.71367882 -114.13786562 391.7084811 C-117.38324287 391.70591709 -120.62819523 391.71204991 -123.87352657 391.73129749 C-127.39247459 391.75114795 -130.91055905 391.74643188 -134.42952633 391.73549366 C-135.45482342 391.74714503 -136.48012052 391.75879639 -137.53648722 391.77080083 C-143.44628083 391.7210209 -146.81665372 391.18214375 -151.32536983 387.25447559 C-154.09213934 383.20549755 -153.79684049 378.98392698 -153.32536983 374.25447559 C-152.66297043 371.408671 -151.67426498 368.75697249 -150.59880733 366.04353809 C-150.30409542 365.26388691 -150.00938351 364.48423573 -149.70574093 363.68095875 C-148.71738766 361.07512393 -147.70861834 358.47767026 -146.70036983 355.87947559 C-145.98079978 353.9914256 -145.26291278 352.10273346 -144.54656124 350.21345997 C-142.98380406 346.09502445 -141.41426127 341.97925876 -139.84099483 337.86482716 C-135.85752804 327.4237994 -131.97712072 316.94415405 -128.08251095 306.46974659 C-125.97546997 300.80590507 -123.86314906 295.14403605 -121.75080395 289.48217106 C-120.55765706 286.28396205 -119.36486772 283.0856197 -118.17204952 279.88728809 C-117.81797622 278.93793227 -117.81797622 278.93793227 -117.45674992 277.96939754 C-113.53534265 267.45510945 -109.61490858 256.94045844 -105.69432735 246.42586231 C-103.40471498 240.28538511 -101.11503913 234.14493157 -98.82536983 228.00447559 C-97.90870287 225.54614237 -96.9920362 223.08780904 -96.07536983 220.62947559 C-68.57536983 146.87947557 -68.57536983 146.87947557 -67.20053768 143.19243336 C-66.28330487 140.73257663 -65.36607872 138.27271741 -64.44885921 135.81285572 C-62.1659091 129.69031001 -59.88284548 123.56780667 -57.59953976 117.44539356 C-53.37080956 106.10619771 -49.14309329 94.76662796 -44.91939449 83.42555714 C-43.20270518 78.81609664 -41.48544767 74.20684787 -39.76807499 69.59764194 C-38.61084144 66.49164684 -37.45400809 63.38550416 -36.29778194 60.2791338 C-33.75723354 53.45370168 -31.20814416 46.63154946 -28.65257931 39.81172657 C-27.46996177 36.64201789 -26.29692809 33.46902444 -25.12779236 30.29433346 C-24.14125258 27.62075306 -23.14695416 24.95009778 -22.15119648 22.2799387 C-21.4487754 20.38870702 -20.75587925 18.49394629 -20.0632391 16.5991106 C-19.41798527 14.874632 -19.41798527 14.874632 -18.75969601 13.11531544 C-18.19831181 11.59591862 -18.19831181 11.59591862 -17.62558651 10.04582691 C-15.67144751 5.85061194 -13.96534703 2.92709986 -9.58177704 1.12921172 C-6.23199933 0.22939441 -3.46203732 0.00276704 0 0 Z " fill="#7FCAC3" transform="translate(339.3253698348999,128.7455244064331)"/>
<path d="M0 0 C1.25816841 -0.00583219 2.51633682 -0.01166439 3.81263155 -0.01767331 C5.20111543 -0.01404046 6.58959882 -0.0102161 7.9780817 -0.00622082 C9.45907648 -0.00924216 10.94006969 -0.01313155 12.42106014 -0.01781338 C16.48718166 -0.02810429 20.5532151 -0.02590879 24.61934388 -0.02163279 C29.00592606 -0.01916757 33.39248692 -0.02817717 37.77906132 -0.03567028 C46.37125375 -0.04842474 54.96341494 -0.05021006 63.55561524 -0.04787002 C70.53863518 -0.04608762 77.52164562 -0.04783481 84.50466442 -0.05209446 C85.99494545 -0.05298724 85.99494545 -0.05298724 87.51533316 -0.05389806 C89.53360684 -0.0551098 91.55188052 -0.05632394 93.5701542 -0.05754044 C112.50066621 -0.06841874 131.43116041 -0.06625204 150.36167342 -0.06015559 C167.6836431 -0.05498553 185.00555656 -0.06624373 202.32751512 -0.08525381 C220.11074935 -0.10462064 237.89395696 -0.11289028 255.67720181 -0.10913056 C265.66234504 -0.10721684 275.6474404 -0.10972273 285.63257504 -0.1238451 C294.13246037 -0.1357451 302.63226838 -0.13717927 311.13215476 -0.12505493 C315.46920961 -0.11915669 319.80612293 -0.1180929 324.14316845 -0.13005733 C328.11377696 -0.14088368 332.0841252 -0.13785169 336.05472136 -0.12379565 C337.49072691 -0.12113975 338.92675264 -0.12354323 340.36273842 -0.13153151 C353.93961019 -0.20181346 353.93961019 -0.20181346 359.67463017 3.25447559 C362.73882953 7.0170734 364.50132025 10.89380968 366.16632938 15.42512989 C366.61642368 16.63801685 367.06651798 17.85090382 367.5302515 19.10054493 C368.0133991 20.426549 368.49641714 21.75260028 368.97931767 23.07869434 C369.49524336 24.47735192 370.01189325 25.87574255 370.52921391 27.27388477 C371.63365412 30.26320882 372.73326531 33.25424672 373.82904911 36.24675465 C375.56894646 40.99805874 377.31956889 45.74536492 379.0720911 50.49202442 C380.86832618 55.35852865 382.66392066 60.22526311 384.45575809 65.09338856 C389.46286531 78.69659838 394.51487605 92.28256156 399.58728886 105.86156178 C401.38318901 110.66965803 403.17698811 115.47853713 404.9708643 120.2873888 C406.31005247 123.87724787 407.64954056 127.46699491 408.98908329 131.05672169 C413.09320165 142.05572149 417.19425432 153.05586449 421.29560184 164.05589771 C423.58849176 170.20546824 425.8815703 176.35496844 428.17463017 182.50447559 C429.09129774 184.96280859 430.00796441 187.42114192 430.92463017 189.87947559 C431.37838017 191.09635059 431.83213017 192.31322559 432.29963017 193.56697559 C458.42463017 263.6294756 458.42463017 263.6294756 459.79929447 267.31621265 C460.71696026 269.77713382 461.63474611 272.23801021 462.55265141 274.69884205 C464.83001293 280.80472214 467.10535403 286.91133935 469.37629032 293.01961231 C473.66933519 304.56021264 477.98324591 316.09169154 482.3642664 327.59914112 C484.18392895 332.37925595 485.99396349 337.16299959 487.80186939 341.94757175 C489.27582604 345.84563283 490.76248394 349.7385217 492.25901699 353.62796688 C493.39635316 356.59535506 494.51436514 359.57002407 495.63556767 362.54353809 C496.04688938 363.60017658 496.4582111 364.65681507 496.88199711 365.74547291 C499.16973425 371.87656862 500.26977006 376.70311785 499.67463017 383.25447559 C497.59365509 387.3421052 495.91659711 389.56846548 491.67463017 391.25447559 C489.45941234 391.50287259 489.45941234 391.50287259 486.99698353 391.50057125 C486.05546932 391.50455335 485.11395511 391.50853544 484.14391017 391.51263821 C483.11278739 391.50681253 482.08166461 391.50098685 481.01929569 391.49498463 C479.37258109 391.4975479 479.37258109 391.4975479 477.69259953 391.50016296 C474.00132271 391.50346627 470.31022628 391.49244017 466.6189661 391.48152637 C463.9780114 391.48096244 461.33706787 391.48119033 458.69611454 391.48241138 C453.00379145 391.48346043 447.31151418 391.47718181 441.61920261 391.46593571 C433.3890679 391.44968629 425.15895535 391.44447327 416.92880633 391.44195972 C403.57616474 391.43758174 390.22354756 391.42426985 376.87091923 391.4053545 C363.8995663 391.38699837 350.92822002 391.37284056 337.95685673 391.36433887 C336.75766085 391.3635507 336.75766085 391.3635507 335.53423879 391.36274661 C331.52359027 391.36013655 327.51294171 391.35760913 323.50229311 391.3551228 C290.22638768 391.3343871 256.95051219 391.29915876 223.67463017 391.25447559 C224.06326448 397.11664298 224.45757564 402.97839313 224.85680485 408.83984852 C224.99142521 410.82751994 225.12458237 412.81529109 225.25615788 414.80316639 C227.91150412 454.86415014 233.79537984 494.87245939 263.67463017 524.25447559 C266.26883316 526.51894069 268.92221491 528.67713488 271.61994267 530.81697559 C286.02466649 542.31128207 298.70462676 553.88749653 307.67463017 570.25447559 C308.2817786 571.36049122 308.88892704 572.46650684 309.51447392 573.60603809 C321.73443743 597.72509081 324.94210659 626.79447096 324.73713017 653.50447559 C324.73261845 654.64271778 324.72810673 655.78095997 324.72345829 656.95369434 C324.7118323 659.72067968 324.69549447 662.48754718 324.67463017 665.25447559 C325.60662235 665.20806934 326.53861454 665.16166309 327.49884892 665.11385059 C343.34637075 664.66518466 356.10243877 669.02743804 367.92463017 679.94197559 C390.40504312 703.80721892 382.67463017 739.5606447 382.67463017 769.25447559 C243.74463017 769.25447559 104.81463017 769.25447559 -38.32536983 769.25447559 C-38.32536983 695.76902752 -38.32536983 695.76902752 -22.74333858 679.50838184 C-12.14617411 669.63024953 -0.86960442 665.03553171 13.48713017 665.19197559 C14.66952274 665.19874317 14.66952274 665.19874317 15.87580204 665.20564747 C17.80877777 665.21736247 19.74171409 665.23529561 21.67463017 665.25447559 C21.65891972 664.37432789 21.65891972 664.37432789 21.64289188 663.47639942 C21.0623246 625.62561696 24.50573347 582.90592508 50.67463017 553.25447559 C51.37330204 552.42431934 52.07197392 551.59416309 52.79181767 550.73885059 C57.41748353 545.37241973 62.35975635 540.87157888 67.90900517 536.47713184 C71.5154655 533.57871952 74.92176598 530.48961914 78.33478642 527.36775684 C80.4480146 525.45914841 82.61153373 523.63825665 84.79963017 521.81697559 C115.05020246 495.21105056 118.82386135 449.25929099 121.29181767 411.84822559 C121.42739925 409.84266434 121.56338279 407.83713021 121.69977665 405.83162403 C122.02935472 400.97287437 122.3535189 396.11379186 122.67463017 391.25447559 C122.10982862 391.25599447 121.54502707 391.25751336 120.96311033 391.25907826 C87.4941524 391.34857548 54.02522445 391.41721417 20.5561737 391.45873691 C16.53820456 391.46373978 12.52023566 391.46891707 8.50226688 391.47420216 C7.70235599 391.4752514 6.90244509 391.47630064 6.07829447 391.47738168 C-6.87660883 391.4947906 -19.83144119 391.52633097 -32.7863024 391.56308678 C-46.0775328 391.60048265 -59.36872603 391.62270858 -72.66000688 391.63082957 C-80.86257506 391.63632017 -89.06494272 391.65366648 -97.26744919 391.68614146 C-102.89094365 391.70727266 -108.51433433 391.71367882 -114.13786562 391.7084811 C-117.38324287 391.70591709 -120.62819523 391.71204991 -123.87352657 391.73129749 C-127.39247459 391.75114795 -130.91055905 391.74643188 -134.42952633 391.73549366 C-135.45482342 391.74714503 -136.48012052 391.75879639 -137.53648722 391.77080083 C-143.44628083 391.7210209 -146.81665372 391.18214375 -151.32536983 387.25447559 C-154.09213934 383.20549755 -153.79684049 378.98392698 -153.32536983 374.25447559 C-152.66297043 371.408671 -151.67426498 368.75697249 -150.59880733 366.04353809 C-150.30409542 365.26388691 -150.00938351 364.48423573 -149.70574093 363.68095875 C-148.71738766 361.07512393 -147.70861834 358.47767026 -146.70036983 355.87947559 C-145.98079978 353.9914256 -145.26291278 352.10273346 -144.54656124 350.21345997 C-142.98380406 346.09502445 -141.41426127 341.97925876 -139.84099483 337.86482716 C-135.85752804 327.4237994 -131.97712072 316.94415405 -128.08251095 306.46974659 C-125.97546997 300.80590507 -123.86314906 295.14403605 -121.75080395 289.48217106 C-120.55765706 286.28396205 -119.36486772 283.0856197 -118.17204952 279.88728809 C-117.81797622 278.93793227 -117.81797622 278.93793227 -117.45674992 277.96939754 C-113.53534265 267.45510945 -109.61490858 256.94045844 -105.69432735 246.42586231 C-103.40471498 240.28538511 -101.11503913 234.14493157 -98.82536983 228.00447559 C-97.90870287 225.54614237 -96.9920362 223.08780904 -96.07536983 220.62947559 C-68.57536983 146.87947557 -68.57536983 146.87947557 -67.20053768 143.19243336 C-66.28330487 140.73257663 -65.36607872 138.27271741 -64.44885921 135.81285572 C-62.1659091 129.69031001 -59.88284548 123.56780667 -57.59953976 117.44539356 C-53.37080956 106.10619771 -49.14309329 94.76662796 -44.91939449 83.42555714 C-43.20270518 78.81609664 -41.48544767 74.20684787 -39.76807499 69.59764194 C-38.61084144 66.49164684 -37.45400809 63.38550416 -36.29778194 60.2791338 C-33.75723354 53.45370168 -31.20814416 46.63154946 -28.65257931 39.81172657 C-27.46996177 36.64201789 -26.29692809 33.46902444 -25.12779236 30.29433346 C-24.14125258 27.62075306 -23.14695416 24.95009778 -22.15119648 22.2799387 C-21.4487754 20.38870702 -20.75587925 18.49394629 -20.0632391 16.5991106 C-19.41798527 14.874632 -19.41798527 14.874632 -18.75969601 13.11531544 C-18.19831181 11.59591862 -18.19831181 11.59591862 -17.62558651 10.04582691 C-15.67144751 5.85061194 -13.96534703 2.92709986 -9.58177704 1.12921172 C-6.23199933 0.22939441 -3.46203732 0.00276704 0 0 Z M2.67463017 25.25447559 C0.36463017 31.52447559 -1.94536983 37.79447559 -4.32536983 44.25447559 C-6.6462268 50.52863441 -8.97391841 56.80022059 -11.30486202 63.0706377 C-11.98578516 64.90310287 -12.66612277 66.73578572 -13.34587765 68.56868458 C-16.81299911 77.91711444 -20.30446089 87.2514731 -23.95036983 96.53181934 C-26.47108322 102.95161208 -28.82487084 109.41376886 -31.09258175 115.92680836 C-33.83887709 123.78674203 -36.8287594 131.54979692 -39.82536983 139.31697559 C-45.86310202 155.00612123 -51.79659836 170.72510952 -57.50670528 186.53670216 C-61.19663693 196.74901762 -64.90085629 206.94748172 -68.90959835 217.04005909 C-70.72418951 221.63746017 -72.40551765 226.27077171 -74.02068233 230.94197559 C-77.89938308 242.03809943 -82.14770199 252.99134683 -86.36638546 263.96150684 C-89.78500309 272.85892599 -93.19200777 281.75193738 -96.32536983 290.75447559 C-100.09406067 301.58239223 -104.2516085 312.26154275 -108.36638546 322.96150684 C-114.00230807 337.62976494 -119.35571539 352.34551225 -124.32536983 367.25447559 C72.02463017 367.25447559 268.37463017 367.25447559 470.67463017 367.25447559 C468.17902645 359.75967457 468.17902645 359.75967457 465.53791142 352.32478809 C465.13346806 351.22102833 464.7290247 350.11726856 464.31232548 348.98006153 C463.87501102 347.79186817 463.43769657 346.60367481 462.98713017 345.37947559 C462.75763676 344.7549651 462.52814335 344.1304546 462.29169559 343.48701954 C458.04130035 331.92118575 453.75968918 320.36684259 449.46891117 308.815938 C448.78347877 306.97058468 448.09842792 305.12508958 447.41379642 303.27943897 C443.97281087 294.00642704 440.49840253 284.75026922 436.89338017 275.53963184 C434.61254101 269.71193899 432.42260923 263.87364891 430.42463017 257.94197559 C427.50182209 249.4434813 424.3693481 241.02877264 421.17463017 232.62947559 C420.93624424 232.00265888 420.69785831 231.37584217 420.45224857 230.73003101 C417.93595883 224.1208843 415.40238261 217.51886785 412.81403446 210.93758106 C412.34284184 209.73319386 412.34284184 209.73319386 411.86213017 208.50447559 C411.62440891 207.89903416 411.38668766 207.29359272 411.14176273 206.66980457 C409.28484027 201.90907134 407.55155666 197.11733474 405.87775517 192.28963184 C403.09170423 184.32841213 400.11297189 176.45170207 397.06714725 168.58684254 C393.26124205 158.75191219 389.46247348 148.92168133 386.04963017 138.94197559 C383.25614125 130.77496773 380.24264873 122.69661938 377.17463017 114.62947559 C376.93570042 114.00120869 376.69677067 113.37294178 376.45060062 112.72563648 C373.93485914 106.11795553 371.40180983 99.51741146 368.81403446 92.93758106 C368.49990604 92.13465626 368.18577763 91.33173145 367.86213017 90.50447559 C367.62418232 89.8983997 367.38623447 89.2923238 367.14107609 88.66788197 C365.29152536 83.92575986 363.56429987 79.15318632 361.89728642 74.34431934 C358.7497256 65.34934062 355.35832315 56.4558574 351.92463017 47.56697559 C351.05723963 45.3181046 350.19056706 43.06896448 349.32544804 40.81921864 C348.79482371 39.43962098 348.26289731 38.06052309 347.7293787 36.68204212 C346.27161728 32.89534433 344.95963306 29.10948429 343.67463017 25.25447559 C231.14463017 25.25447559 118.61463017 25.25447559 2.67463017 25.25447559 Z " fill="#000100" transform="translate(339.3253698348999,128.7455244064331)"/>
<path d="M0 0 C16.83 0 33.66 0 51 0 C52.50531775 3.01063549 52.2972833 6.17079985 52.4296875 9.48046875 C52.50128855 11.04168976 52.57341246 12.60288686 52.64599609 14.1640625 C52.68295593 14.98422852 52.71991577 15.80439453 52.75799561 16.64941406 C53.46040913 31.88632804 54.50502116 46.93559847 57 62 C57.14163574 62.87962402 57.28327148 63.75924805 57.42919922 64.66552734 C61.81285351 91.35011465 69.89655854 116.64240305 87 138 C87.62777344 138.78632812 88.25554687 139.57265625 88.90234375 140.3828125 C92.85473864 145.09700686 97.30183667 149.04841479 102 153 C104.95590695 155.52561097 107.90468644 158.05955305 110.85449219 160.59228516 C113.3481125 162.73207189 115.84274088 164.86847419 118.36328125 166.9765625 C141.77445674 186.77519187 149.13503983 213.70221409 151.75 243.1875 C151.8151178 243.91198334 151.8802356 244.63646667 151.94732666 245.38290405 C152.13520243 247.51895672 152.31210065 249.65560523 152.484375 251.79296875 C152.63471191 253.65731567 152.63471191 253.65731567 152.78808594 255.55932617 C153.08110857 261.6996356 153 267.85270286 153 274 C69.18 274 -14.64 274 -101 274 C-101 235.00219837 -99.62224819 199.44152085 -71.6875 170.4375 C-67.95312525 166.81345905 -63.89447922 163.59655195 -59.84375 160.3359375 C-56.25046747 157.38431256 -52.81368323 154.28249396 -49.38671875 151.140625 C-47.6525059 149.58522624 -45.86273774 148.09109159 -44.04296875 146.63671875 C-40.79074661 143.93884679 -38.20697355 140.89498722 -35.625 137.5625 C-35.15022217 136.95051758 -34.67544434 136.33853516 -34.1862793 135.70800781 C-29.46301091 129.48676812 -25.52238823 122.96777457 -22 116 C-21.66371582 115.34080566 -21.32743164 114.68161133 -20.98095703 114.00244141 C-12.02057674 96.10272446 -7.72784692 76.72876549 -5 57 C-4.81824219 55.78054688 -4.63648438 54.56109375 -4.44921875 53.3046875 C-2.8629823 41.51083788 -2.31956035 29.63013106 -1.69702148 17.75390625 C-1.63828857 16.66211311 -1.63828857 16.66211311 -1.57836914 15.54826355 C-1.47112163 13.54315322 -1.36811918 11.53781713 -1.26538086 9.5324707 C-1 6 -1 6 0 0 Z " fill="#F9C13B" transform="translate(487,520)"/>
<path d="M0 0 C1.14833305 -0.00644889 2.2966661 -0.01289778 3.47979712 -0.0195421 C5.35769632 -0.01489629 5.35769632 -0.01489629 7.27353287 -0.01015663 C8.62452137 -0.01389493 9.97550772 -0.01849717 11.32649064 -0.02388728 C15.0333695 -0.03611063 18.74015807 -0.0358576 22.44705248 -0.03349853 C26.44718978 -0.03309019 30.4472982 -0.04413117 34.44742203 -0.05361366 C42.2826188 -0.07022126 50.11778547 -0.07572311 57.95299837 -0.07683842 C64.32291162 -0.07778906 70.69281495 -0.08190015 77.06272507 -0.08823967 C95.1273339 -0.10585185 113.19191897 -0.11507864 131.25653645 -0.11357872 C132.7171088 -0.11345885 132.7171088 -0.11345885 134.20718765 -0.11333656 C135.18209318 -0.1132548 136.15699872 -0.11317304 137.16144684 -0.1130888 C152.95854138 -0.11227603 168.75554055 -0.13141154 184.55260751 -0.1596133 C200.77757059 -0.18835009 217.00248718 -0.20215314 233.22747636 -0.20042574 C242.33468418 -0.19976209 251.44179202 -0.20524348 260.5489769 -0.22678185 C268.30366415 -0.24500416 276.05820611 -0.24933241 283.81290552 -0.235763 C287.76760817 -0.22923847 291.72203218 -0.22909726 295.67670822 -0.2464695 C299.30152407 -0.26222857 302.92584101 -0.25930822 306.5506449 -0.24190123 C308.47362039 -0.23739311 310.39661152 -0.25246652 312.31952643 -0.26838052 C320.78351082 -0.20119836 327.74787291 1.13974362 334.75308609 6.08148766 C335.34347672 6.69637047 335.93386734 7.31125328 336.54214859 7.94476891 C337.14800797 8.54676109 337.75386734 9.14875328 338.37808609 9.76898766 C348.84720434 24.32974819 344.16714859 35.2671681 344.16714859 55.25726891 C221.73714859 55.25726891 99.30714859 55.25726891 -26.83285141 55.25726891 C-26.83285141 16.88226891 -26.83285141 16.88226891 -19.33285141 8.44476891 C-18.50785141 7.72289391 -17.68285141 7.00101891 -16.83285141 6.25726891 C-15.62628891 5.17445641 -15.62628891 5.17445641 -14.39535141 4.06976891 C-9.87236785 0.87058542 -5.46972212 0.00779419 0 0 Z " fill="#7FCAC3" transform="translate(352.8328514099121,817.7427310943604)"/>
</svg>
